<?xml version="1.0" standalone="no"?>
<!DOCTYPE svg PUBLIC "-//W3C//DTD SVG 20010904//EN"
 "http://www.w3.org/TR/2001/REC-SVG-20010904/DTD/svg10.dtd">
<svg version="1.0" xmlns="http://www.w3.org/2000/svg"
 width="960.000000pt" height="960.000000pt" viewBox="0 0 960.000000 960.000000"
 preserveAspectRatio="xMidYMid meet">
<metadata>
Created by potrace 1.14, written by Peter Selinger 2001-2017
</metadata>
<g transform="translate(0.000000,960.000000) scale(0.100000,-0.100000)"
fill="#000000" stroke="none">
<path d="M534 6590 c-62 -13 -161 -56 -207 -90 -61 -45 -103 -102 -129 -178
-21 -60 -23 -85 -23 -247 0 -172 1 -183 27 -248 54 -135 92 -172 367 -358 245
-166 263 -190 264 -366 1 -127 -27 -173 -106 -173 -65 0 -71 19 -77 219 l-5
176 -234 3 -234 2 6 -157 c7 -175 31 -292 72 -354 58 -89 155 -152 290 -190
113 -32 306 -33 418 -1 154 44 259 120 304 221 53 120 55 439 2 591 -50 147
-97 190 -499 453 -47 30 -93 69 -103 85 -25 44 -39 128 -31 192 11 92 78 137
135 91 22 -18 24 -28 29 -148 l5 -128 228 -3 c203 -2 228 -1 234 14 10 27 -15
305 -32 355 -32 95 -120 167 -260 215 -72 25 -96 28 -240 30 -88 2 -178 -1
-201 -6z"/>
<path d="M5131 6585 c-142 -40 -281 -144 -328 -245 -46 -100 -48 -131 -48
-745 0 -620 0 -622 51 -730 128 -269 519 -352 695 -147 19 22 38 41 43 43 5 2
18 -23 30 -56 l21 -60 155 0 155 0 3 513 2 512 -295 0 -296 0 3 -142 3 -143
48 -3 49 -3 -4 -194 c-3 -178 -5 -196 -24 -222 -18 -23 -29 -28 -65 -28 -40 0
-45 3 -61 35 -17 32 -18 83 -17 635 1 330 4 611 8 625 9 32 50 55 84 46 53
-13 61 -41 65 -237 l4 -179 251 0 250 0 -6 138 c-9 230 -45 349 -129 434 -56
56 -137 106 -219 135 -65 23 -93 27 -224 30 -111 2 -164 -1 -204 -12z"/>
<path d="M8675 6590 c-207 -44 -348 -174 -392 -360 -16 -67 -18 -134 -18 -635
0 -505 2 -566 18 -624 49 -180 173 -297 367 -348 89 -23 282 -23 370 0 144 38
242 105 308 210 75 119 75 124 80 729 2 445 1 553 -12 625 -33 191 -135 310
-325 381 -57 21 -86 25 -211 28 -80 2 -163 -1 -185 -6z m211 -335 l24 -25 -2
-629 c-3 -602 -4 -630 -22 -650 -25 -28 -77 -28 -102 0 -18 20 -19 47 -22 623
-2 330 0 616 3 634 13 69 75 93 121 47z"/>
<path d="M1470 5600 l0 -960 205 0 205 0 0 428 c0 279 4 422 10 412 5 -8 17
-40 25 -70 18 -63 44 -150 110 -370 26 -85 57 -191 70 -235 13 -44 29 -98 37
-120 l13 -40 215 0 215 0 3 958 2 957 -210 0 -210 0 0 -422 0 -423 -29 85
c-16 47 -67 207 -115 355 -48 149 -97 299 -109 335 l-22 65 -207 3 -208 2 0
-960z"/>
<path d="M2684 6533 c3 -16 20 -147 36 -293 32 -278 59 -511 110 -950 17 -146
40 -346 51 -445 11 -99 22 -186 24 -193 4 -10 71 -12 312 -10 l308 3 12 80
c13 82 26 178 87 624 20 139 37 256 40 258 2 3 7 -15 10 -39 45 -354 125 -871
141 -915 6 -17 610 -19 620 -3 5 8 224 1864 225 1903 0 4 -109 6 -242 5 l-243
-3 -17 -120 c-27 -191 -76 -642 -93 -865 -17 -225 -25 -294 -30 -288 -2 2 -11
100 -20 218 -25 337 -74 950 -81 1008 l-6 52 -259 0 -259 0 -4 -22 c-20 -94
-100 -799 -118 -1038 -18 -243 -21 -228 -58 250 -11 146 -27 344 -35 440 -8
96 -17 219 -21 273 l-6 97 -245 0 -245 0 6 -27z"/>
<path d="M6530 5600 l0 -960 218 2 217 3 5 600 c3 330 6 593 8 585 5 -34 55
-379 107 -740 31 -212 59 -398 64 -415 l7 -30 151 -3 151 -3 16 108 c9 60 23
163 31 230 8 67 24 181 34 255 11 73 34 245 53 382 l33 249 5 -609 5 -609 218
-3 217 -2 0 960 0 960 -325 0 -324 0 -6 -32 c-5 -35 -43 -332 -76 -608 -22
-184 -27 -215 -36 -207 -3 3 -13 66 -23 139 -27 198 -58 416 -82 571 l-20 137
-324 0 -324 0 0 -960z"/>
<path d="M233 4374 c-54 -27 -68 -50 -68 -111 0 -50 3 -58 33 -83 19 -15 55
-33 80 -40 150 -39 175 -53 175 -99 0 -48 -31 -73 -95 -79 -75 -6 -121 15
-148 68 -18 35 -24 40 -43 34 -32 -9 -32 -9 -13 -59 22 -57 61 -84 139 -97
143 -24 247 60 217 174 -15 55 -50 76 -195 113 -68 18 -95 38 -95 72 0 84 172
98 210 16 12 -25 21 -33 43 -33 22 0 27 4 27 24 0 32 -45 85 -87 102 -43 19
-140 17 -180 -2z"/>
<path d="M1527 4383 c-4 -3 -7 -112 -7 -240 l0 -234 28 3 27 3 3 229 c2 177
-1 231 -10 238 -16 10 -32 10 -41 1z"/>
<path d="M1671 4377 c-8 -11 -11 -78 -9 -238 l3 -224 28 -3 27 -3 -2 238 c-3
208 -5 238 -19 241 -9 1 -21 -4 -28 -11z"/>
<path d="M1822 4381 c-8 -4 -12 -19 -10 -32 2 -18 10 -25 31 -27 27 -3 28 -1
25 30 -3 34 -21 45 -46 29z"/>
<path d="M2717 4383 c-4 -3 -7 -112 -7 -240 l0 -234 28 3 27 3 5 179 5 179
120 -181 c114 -173 122 -182 153 -182 l32 0 0 234 c0 147 -4 237 -10 241 -6 3
-19 3 -30 0 -19 -6 -20 -15 -20 -183 0 -149 -2 -174 -14 -162 -7 8 -62 87
-121 175 -59 88 -113 163 -119 167 -14 10 -41 10 -49 1z"/>
<path d="M4147 4383 c-4 -3 -7 -39 -7 -80 0 -40 -2 -73 -4 -73 -2 0 -17 7 -32
15 -64 33 -152 4 -183 -60 -20 -41 -26 -135 -12 -178 15 -45 70 -94 116 -103
25 -4 46 -1 74 13 33 17 41 18 45 6 4 -8 16 -13 28 -11 l23 3 3 229 c2 177 -1
231 -10 238 -16 10 -32 10 -41 1z m-40 -197 c26 -23 28 -29 28 -106 0 -77 -2
-83 -28 -106 -32 -28 -56 -30 -97 -9 -36 19 -54 70 -48 141 8 96 80 136 145
80z"/>
<path d="M4784 4382 c-8 -5 7 -75 50 -237 l61 -230 32 -3 c23 -2 33 1 37 15 3
10 26 92 51 183 58 209 56 202 61 197 3 -2 23 -69 45 -148 75 -273 66 -249 99
-249 34 0 26 -20 109 285 47 173 48 180 29 189 -13 7 -23 5 -32 -5 -8 -8 -33
-94 -57 -191 -24 -98 -46 -178 -50 -178 -4 0 -10 17 -13 38 -4 20 -26 103 -48
184 -40 142 -42 147 -71 154 -19 4 -34 1 -42 -7 -7 -8 -34 -90 -60 -184 -55
-202 -54 -199 -60 -194 -2 2 -23 88 -46 189 -23 102 -42 186 -43 186 -6 8 -44
12 -52 6z"/>
<path d="M6014 4377 c-2 -7 -3 -114 -2 -237 l3 -225 28 -3 27 -3 0 69 c0 57 4
72 21 88 13 11 23 14 27 8 4 -6 29 -45 56 -87 45 -71 52 -77 83 -77 18 0 33 2
33 5 0 3 -29 49 -65 102 -36 53 -65 101 -65 107 0 6 26 36 57 68 l57 58 -35 0
c-29 0 -44 -9 -94 -60 -33 -33 -63 -60 -67 -60 -4 0 -8 56 -8 124 0 104 -3
125 -16 130 -24 9 -34 7 -40 -7z"/>
<path d="M6344 4376 c-11 -29 1 -51 29 -54 24 -3 27 0 27 26 0 38 -44 60 -56
28z"/>
<path d="M7535 4371 c-79 -36 -127 -122 -127 -226 0 -124 67 -212 179 -236 70
-14 127 -5 195 29 l53 27 3 93 3 93 -98 -3 c-90 -3 -98 -5 -98 -23 0 -17 8
-21 65 -25 l65 -5 3 -47 c3 -44 1 -48 -30 -65 -22 -12 -55 -18 -103 -18 -58 0
-76 4 -104 24 -66 47 -89 156 -53 251 39 102 181 133 257 57 18 -18 34 -39 37
-47 4 -12 9 -13 32 -2 l28 12 -25 43 c-34 59 -91 87 -177 87 -42 0 -79 -7
-105 -19z"/>
<path d="M998 4350 c-22 -17 -28 -30 -28 -61 0 -32 -3 -39 -20 -39 -26 0 -27
-30 -1 -37 17 -4 19 -18 23 -133 4 -153 13 -170 85 -170 23 0 43 4 43 9 0 22
-14 41 -30 41 -34 0 -41 24 -38 136 l3 109 28 3 c19 2 27 9 27 22 0 13 -8 20
-27 22 -26 3 -28 7 -33 61 l-5 59 -27 -22z"/>
<path d="M1992 4350 c-15 -14 -22 -33 -22 -56 0 -27 -5 -37 -20 -41 -26 -7
-27 -43 -1 -43 18 0 19 -10 23 -136 3 -120 5 -137 22 -150 19 -14 87 -20 98
-8 14 13 -6 44 -28 44 -31 0 -36 21 -32 145 l3 100 28 3 c19 2 27 9 27 22 0
13 -8 20 -27 22 -27 3 -28 6 -31 61 -2 31 -6 57 -11 57 -4 0 -17 -9 -29 -20z"/>
<path d="M653 4245 c-32 -14 -69 -68 -58 -85 12 -19 42 -10 63 20 20 26 29 30
70 30 61 0 85 -16 80 -55 -3 -27 -7 -31 -53 -39 -137 -24 -175 -48 -175 -111
0 -49 15 -74 55 -91 46 -19 82 -17 135 7 40 18 46 18 56 5 6 -9 24 -16 39 -16
22 0 26 3 20 18 -4 9 -9 71 -12 137 -5 141 -14 170 -55 184 -43 15 -127 13
-165 -4z m157 -202 c-1 -59 -38 -93 -101 -93 -56 0 -92 58 -55 89 10 9 105 34
149 40 4 1 7 -16 7 -36z"/>
<path d="M1214 4241 c-67 -41 -94 -110 -79 -208 10 -66 62 -118 128 -128 64
-10 131 15 158 59 23 38 20 50 -12 54 -19 2 -28 -4 -37 -23 -35 -76 -160 -46
-178 43 l-6 31 128 3 129 3 -2 39 c-7 113 -135 184 -229 127z m142 -56 c16
-16 24 -34 22 -48 -3 -20 -9 -22 -68 -25 -35 -2 -75 0 -87 3 -31 7 -30 39 2
70 34 35 96 35 131 0z"/>
<path d="M2210 4242 c-73 -39 -103 -167 -60 -257 47 -96 187 -112 260 -29 34
39 35 57 3 62 -12 2 -34 -11 -56 -33 -40 -40 -72 -45 -118 -18 -26 16 -49 57
-49 89 0 11 27 14 125 14 l125 0 0 38 c0 117 -124 189 -230 134z m125 -38 c20
-8 48 -62 41 -80 -4 -10 -25 -14 -83 -14 -98 0 -110 7 -89 48 9 17 24 36 33
41 20 12 73 14 98 5z"/>
<path d="M3245 4242 c-40 -26 -60 -50 -74 -91 -24 -71 -8 -154 37 -204 46 -49
148 -59 208 -20 28 18 58 69 49 83 -11 19 -53 11 -60 -11 -10 -31 -67 -54
-106 -43 -36 10 -67 47 -71 84 l-3 25 120 3 c66 1 124 7 129 12 17 17 -14 106
-50 141 -29 28 -42 33 -91 36 -45 3 -65 0 -88 -15z m140 -57 c14 -13 25 -36
25 -50 l0 -26 -87 3 c-82 3 -88 4 -91 25 -2 14 6 32 22 48 35 35 97 35 131 0z"/>
<path d="M3610 4238 c-51 -35 -70 -69 -77 -131 -15 -146 95 -241 222 -192 73
27 112 105 53 105 -15 0 -29 -11 -40 -29 -33 -59 -123 -49 -161 17 -33 57 -23
62 119 62 l127 0 -7 42 c-15 91 -75 148 -156 148 -32 0 -57 -7 -80 -22z m146
-53 c16 -16 24 -34 22 -48 -3 -21 -8 -22 -88 -22 -80 0 -85 1 -88 22 -5 36 39
73 88 73 30 0 47 -6 66 -25z"/>
<path d="M4334 4250 c-55 -22 -73 -109 -31 -147 12 -12 49 -29 82 -38 103 -29
133 -64 83 -99 -43 -31 -117 -14 -137 31 -8 17 -18 23 -33 21 -35 -5 -33 -35
4 -72 92 -92 273 -27 244 88 -10 39 -32 54 -121 81 -71 22 -95 37 -95 60 0 17
39 35 75 35 35 0 48 -5 63 -25 11 -14 30 -25 42 -25 35 0 23 49 -19 77 -36 24
-114 31 -157 13z"/>
<path d="M5480 4242 c-54 -29 -82 -91 -78 -174 6 -108 59 -163 158 -163 99 0
150 53 157 162 4 58 1 75 -19 112 -14 26 -38 52 -58 62 -44 24 -115 24 -160 1z
m145 -56 c49 -49 46 -163 -5 -208 -40 -37 -80 -36 -121 0 -27 24 -33 37 -37
85 -8 96 27 147 101 147 27 0 45 -7 62 -24z"/>
<path d="M5870 4240 c-24 -24 -30 -25 -30 -5 0 9 -9 15 -25 15 l-25 0 0 -171
0 -170 28 3 27 3 5 127 c3 81 9 131 17 139 7 7 32 15 55 18 31 4 44 11 46 25
8 38 -64 50 -98 16z"/>
<path d="M6594 4250 c-12 -5 -25 -13 -29 -19 -9 -16 -25 -13 -25 4 0 9 -9 15
-25 15 l-25 0 0 -170 0 -170 30 0 30 0 0 115 c0 63 5 125 11 138 21 47 94 62
129 27 18 -18 20 -33 20 -150 l0 -130 30 0 30 0 0 135 c0 147 -8 178 -51 201
-31 15 -92 18 -125 4z"/>
<path d="M6913 4240 c-45 -27 -73 -87 -73 -155 0 -130 104 -212 204 -160 37
20 36 20 36 -19 0 -51 -38 -86 -93 -86 -36 0 -48 5 -70 30 -30 33 -54 39 -63
15 -9 -23 23 -65 61 -81 80 -33 172 -6 205 60 18 38 20 61 20 224 l0 182 -24
0 c-13 0 -26 -6 -29 -12 -3 -10 -12 -9 -35 5 -40 23 -99 22 -139 -3z m141 -60
c90 -108 -18 -284 -121 -196 -24 21 -28 32 -31 94 -4 68 -3 73 26 102 42 42
90 42 126 0z"/>
<path d="M8010 4240 c-17 -17 -21 -18 -26 -5 -4 8 -17 15 -30 15 l-24 0 0
-171 0 -170 28 3 27 3 6 120 c3 66 9 128 13 138 8 17 25 24 76 29 28 3 40 35
18 49 -23 15 -67 10 -88 -11z"/>
<path d="M8215 4245 c-16 -9 -41 -32 -55 -52 -21 -31 -25 -48 -25 -114 0 -84
12 -111 69 -153 38 -29 134 -29 173 0 53 40 73 81 73 152 0 114 -60 182 -162
182 -23 0 -56 -7 -73 -15z m126 -45 c30 -17 49 -64 49 -126 0 -50 -3 -59 -34
-90 -43 -43 -83 -45 -127 -6 -27 24 -33 37 -37 85 -5 64 9 110 42 132 24 17
79 20 107 5z"/>
<path d="M8976 4239 c-23 -18 -27 -18 -32 -5 -3 9 -17 16 -30 16 l-24 0 0
-235 0 -235 30 0 30 0 0 75 c0 75 5 86 28 63 20 -20 108 -15 139 8 95 71 95
257 -1 315 -42 26 -106 25 -140 -2z m88 -29 c64 -24 88 -144 43 -211 -79 -118
-206 5 -152 147 15 40 44 66 82 74 1 0 13 -4 27 -10z"/>
<path d="M1812 4083 l3 -168 28 -3 27 -3 0 170 0 171 -30 0 -30 0 2 -167z"/>
<path d="M6342 4083 l3 -168 28 -3 27 -3 0 170 0 171 -30 0 -30 0 2 -167z"/>
<path d="M8520 4118 c0 -150 7 -174 60 -201 43 -22 101 -16 139 14 l26 21 3
-21 c2 -15 11 -21 28 -21 l24 0 0 170 0 170 -30 0 -30 0 0 -119 c0 -103 -3
-122 -20 -144 -34 -42 -105 -44 -132 -3 -4 6 -8 68 -8 139 l0 127 -30 0 -30 0
0 -132z"/>
<path d="M4343 3644 c-55 -20 -108 -80 -127 -145 -20 -66 -20 -102 -1 -167 30
-100 111 -162 215 -162 135 0 224 97 224 245 1 179 -146 287 -311 229z m171
-62 c99 -57 102 -264 5 -333 -26 -18 -47 -24 -89 -24 -68 0 -114 29 -141 89
-35 78 -17 212 34 255 51 41 132 47 191 13z"/>
<path d="M4777 3640 c-21 -16 -27 -30 -27 -58 0 -44 -8 -58 -35 -63 -11 -3
-21 -12 -23 -22 -3 -12 5 -19 27 -23 l31 -6 0 -144 0 -144 25 0 25 0 0 145 0
145 60 0 60 0 0 -146 0 -145 28 3 27 3 3 142 3 142 27 3 c19 2 28 9 30 26 3
19 -1 22 -27 22 -29 0 -31 3 -31 35 0 36 20 55 59 55 16 0 21 6 21 26 0 26 -1
26 -51 22 -63 -6 -82 -24 -89 -85 l-5 -48 -55 0 c-45 0 -55 3 -58 18 -6 31 25
67 59 67 26 0 30 3 27 23 -4 32 -73 37 -111 7z"/>
<path d="M160 3416 l0 -236 30 0 30 0 2 192 3 192 48 -140 c27 -76 56 -163 64
-191 14 -48 19 -53 44 -53 35 0 35 0 99 190 29 85 56 159 61 164 5 6 9 -67 9
-172 l0 -182 30 0 30 0 0 236 0 235 -42 -3 -42 -3 -53 -150 c-29 -82 -58 -169
-65 -192 -7 -24 -15 -43 -18 -43 -4 0 -35 87 -71 193 l-64 192 -47 3 -48 3 0
-235z"/>
<path d="M5090 3621 c0 -35 12 -45 41 -36 32 11 22 59 -13 63 -25 3 -28 0 -28
-27z"/>
<path d="M3878 3619 c-13 -7 -18 -22 -18 -50 0 -33 -4 -41 -25 -49 -14 -5 -25
-16 -25 -25 0 -8 11 -17 25 -21 l25 -6 0 -127 c0 -88 4 -133 13 -145 15 -21
91 -34 101 -17 13 21 -4 51 -29 51 -31 0 -35 15 -35 135 l0 104 28 3 c19 2 28
9 30 25 3 17 -2 22 -25 25 -26 3 -28 6 -31 56 -3 54 -6 58 -34 41z"/>
<path d="M790 3520 c-35 -9 -90 -59 -90 -84 0 -8 11 -16 25 -19 21 -3 29 1 40
23 33 64 155 49 155 -20 0 -27 -2 -29 -72 -40 -40 -7 -83 -16 -95 -21 -63 -24
-84 -104 -40 -155 33 -38 114 -45 172 -14 35 18 41 19 51 5 6 -8 24 -15 39
-15 22 0 26 3 20 18 -4 9 -10 73 -12 142 -6 142 -14 164 -70 179 -43 12 -73
12 -123 1z m130 -210 c0 -56 -34 -90 -90 -90 -53 0 -80 15 -80 44 0 34 28 54
101 69 35 8 65 15 67 16 1 0 2 -17 2 -39z"/>
<path d="M1190 3519 c-13 -5 -33 -17 -42 -26 -17 -15 -18 -15 -18 5 0 17 -6
22 -25 22 l-25 0 0 -170 0 -170 25 0 c25 0 25 0 25 98 0 131 12 169 57 188 43
18 83 8 100 -27 8 -15 13 -68 13 -141 l0 -118 30 0 30 0 0 118 c0 133 -11 186
-43 207 -30 19 -97 27 -127 14z"/>
<path d="M1517 3515 c-21 -7 -40 -15 -41 -17 -21 -27 -36 -55 -36 -65 0 -24
42 -13 70 17 50 53 150 34 150 -30 0 -27 -2 -29 -72 -40 -98 -16 -137 -36
-154 -77 -18 -43 -9 -77 28 -108 38 -32 106 -34 163 -5 35 18 41 19 51 5 6 -8
23 -15 37 -15 24 0 24 2 16 38 -5 20 -9 84 -9 142 0 121 -9 143 -68 160 -49
13 -89 12 -135 -5z m143 -205 c0 -59 -33 -90 -98 -90 -55 0 -72 12 -72 52 0
33 17 43 106 63 32 7 60 13 62 14 1 0 2 -17 2 -39z"/>
<path d="M1880 3512 c-75 -37 -106 -135 -73 -232 23 -69 64 -100 133 -100 25
0 55 7 66 15 26 19 34 19 34 -4 0 -36 -21 -78 -46 -92 -40 -21 -95 -15 -119
13 -12 14 -31 27 -44 31 -20 5 -22 2 -19 -26 7 -69 138 -104 215 -57 64 39 68
53 68 264 l0 191 -27 3 c-19 2 -28 -1 -28 -11 0 -12 -7 -11 -37 4 -46 24 -78
24 -123 1z m109 -47 c38 -19 54 -63 49 -130 -6 -72 -35 -105 -90 -105 -72 0
-113 78 -89 166 13 47 20 57 46 72 27 15 51 15 84 -3z"/>
<path d="M2266 3516 c-129 -48 -140 -266 -16 -328 74 -37 166 -16 209 47 27
39 26 40 -9 48 -21 5 -31 0 -53 -28 -24 -30 -34 -35 -68 -35 -49 0 -99 43 -99
84 l0 25 123 3 122 3 -1 48 c-1 103 -106 170 -208 133z m118 -58 c14 -13 27
-34 28 -48 3 -25 3 -25 -89 -28 -84 -2 -93 -1 -93 15 0 68 101 107 154 61z"/>
<path d="M2648 3511 c-30 -17 -37 -18 -42 -6 -3 8 -17 15 -31 15 l-25 0 0
-170 0 -170 29 0 29 0 4 125 c3 109 6 127 23 145 27 27 75 35 100 16 18 -13
20 -28 23 -150 l4 -136 29 0 29 0 0 119 c0 66 3 127 6 136 7 18 54 45 79 45 8
0 24 -9 35 -20 18 -18 20 -33 20 -150 l0 -130 30 0 30 0 0 130 c0 157 -11 192
-64 210 -43 14 -85 6 -121 -22 l-26 -20 -24 22 c-33 31 -91 36 -137 11z"/>
<path d="M3196 3520 c-67 -21 -106 -85 -106 -177 0 -104 63 -173 158 -173 59
0 108 23 132 62 25 42 25 46 -2 50 -16 3 -33 -7 -54 -29 -50 -53 -127 -44
-159 17 -30 57 -27 59 108 62 l122 3 0 50 c-1 102 -95 166 -199 135z m115 -69
c16 -16 29 -39 29 -50 0 -20 -6 -21 -89 -21 -50 0 -92 4 -96 9 -9 16 17 62 44
76 42 23 79 18 112 -14z"/>
<path d="M3575 3510 c-47 -24 -45 -24 -45 -5 0 9 -9 15 -25 15 l-25 0 0 -170
0 -170 25 0 25 0 1 103 c0 130 12 167 61 185 30 12 41 12 64 0 36 -17 42 -39
43 -175 l1 -113 25 0 25 0 0 143 c0 162 -6 179 -68 197 -51 14 -62 13 -107
-10z"/>
<path d="M5315 3515 c-70 -25 -101 -89 -92 -191 8 -108 71 -163 174 -151 50 5
96 41 112 88 11 32 6 39 -25 39 -17 0 -25 -7 -30 -25 -14 -56 -92 -73 -140
-31 -24 20 -28 33 -32 88 -5 77 12 119 57 138 48 19 79 7 115 -44 14 -21 56
-14 56 9 0 25 -51 74 -88 85 -47 13 -58 12 -107 -5z"/>
<path d="M5655 3520 c-125 -38 -142 -270 -25 -332 69 -36 168 -17 209 40 27
38 27 50 -1 54 -16 3 -33 -7 -54 -29 -36 -38 -87 -44 -129 -17 -20 13 -45 60
-45 85 0 5 53 9 119 9 84 0 122 4 129 13 11 13 1 82 -18 118 -27 49 -120 79
-185 59z m98 -51 c25 -11 47 -47 47 -74 0 -12 -18 -15 -90 -15 -87 0 -90 1
-90 23 0 58 72 94 133 66z"/>
<path d="M5090 3351 l0 -171 30 0 30 0 -2 168 -3 167 -27 3 -28 3 0 -170z"/>
</g>
</svg>
